# xmcd CD database file
#
# Track frame offsets:
#	150
#	19615
#	39955
#	59385
#
# Disc length: 1061 seconds
#
# Revision: 0
# Processed by: cddbd v1.5PL3 Copyright (c) Steve Scherf et al.
# Submitted via: CDex 1.50Beta7
#
DISCID=26042304
DTITLE=大野まりな - となりのプリンセス オープニングテーマ
DYEAR=1997
DGENRE=Game
TTITLE0=素直になれるなんて
TTITLE1=いつの日にか……
TTITLE2=素直になれるなんて (Original Karaoke)
TTITLE3=いつの日にか…… (Original Karaoke)
EXTD=YEAR: 1997
EXTT0=
EXTT1=
EXTT2=
EXTT3=
PLAYORDER=
